<svg width="1200" height="900" viewBox="0 0 1200 900" xmlns="http://www.w3.org/2000/svg">
  <defs>
    <linearGradient id="bg2" x1="0" y1="0" x2="1" y2="1">
      <stop offset="0%" stop-color="#0F766E" />
      <stop offset="100%" stop-color="#14B8A6" />
    </linearGradient>
  </defs>
  <rect width="1200" height="900" rx="40" fill="url(#bg2)" />
  <rect x="90" y="90" width="1020" height="720" rx="36" fill="rgba(255,255,255,0.08)" />
  <rect x="150" y="220" width="500" height="120" rx="28" fill="rgba(255,255,255,0.22)" />
  <rect x="150" y="360" width="380" height="420" rx="32" fill="rgba(255,255,255,0.14)" />
  <rect x="600" y="320" width="360" height="260" rx="28" fill="rgba(255,255,255,0.16)" />
  <path d="M680 360 h240 a20 20 0 0 1 20 20 v140 a20 20 0 0 1 -20 20 h-240 a20 20 0 0 1 -20 -20 v-140 a20 20 0 0 1 20 -20 z" fill="rgba(15,118,110,0.95)" />
  <rect x="640" y="620" width="280" height="100" rx="24" fill="rgba(255,255,255,0.18)" />
  <rect x="660" y="400" width="200" height="18" rx="9" fill="#fff" opacity="0.85" />
  <rect x="660" y="440" width="140" height="18" rx="9" fill="#fff" opacity="0.75" />
  <rect x="660" y="480" width="220" height="18" rx="9" fill="#fff" opacity="0.75" />
  <circle cx="260" cy="580" r="70" fill="#fff" opacity="0.12" />
  <path d="M230 570 h60 a12 12 0 0 1 12 12 v24 a12 12 0 0 1 -12 12 h-60 a12 12 0 0 1 -12 -12 v-24 a12 12 0 0 1 12 -12 z" fill="#fff" opacity="0.85" />
  <path d="M250 560 v-40 h80" fill="none" stroke="#fff" stroke-width="18" stroke-linecap="round" />
  <path d="M250 620 h80" fill="none" stroke="#fff" stroke-width="18" stroke-linecap="round" />
  <text x="150" y="180" fill="#fff" font-family="Inter, sans-serif" font-size="56" font-weight="700">Helpdesk</text>
</svg>